<svg width="755" height="736" viewBox="0 0 755 736" fill="none" xmlns="http://www.w3.org/2000/svg">
    <path d="M233.184 223.185C271.592 184.777 323.684 163.2 378 163.2C432.316 163.2 484.408 184.777 522.815 223.185L468.542 277.457C444.529 253.444 411.96 239.954 378 239.954C344.04 239.954 311.471 253.444 287.457 277.458L233.184 223.185Z" fill="white" fillOpacity="0.1" stroke="#1A1A1A" stroke-linejoin="round"/>
    <path d="M522.815 512.815C484.408 551.223 432.316 572.8 378 572.8C323.684 572.8 271.592 551.223 233.184 512.815L287.457 458.542C311.471 482.556 344.04 496.046 378 496.046C411.96 496.046 444.529 482.556 468.542 458.542L522.815 512.815Z" fill="white" fillOpacity="0.1" stroke="#1A1A1A" stroke-linejoin="round"/>
    <circle cx="378" cy="368" r="128" stroke="#4D4D4D" stroke-linejoin="round"/>
    <circle cx="378" cy="368" r="204.8" stroke="#4D4D4D" stroke-linejoin="round"/>
    <circle cx="378" cy="368" r="281.6" stroke="#333333" stroke-linejoin="round"/>
    <circle cx="378" cy="368" r="358.4" stroke="#333333" stroke-linejoin="round"/>
    <circle cx="378" cy="368" r="435.2" stroke="#333333" stroke-linejoin="round"/>
</svg>
